# xmcd
#
# Track frame offsets:
#  150
#  11892
#  29212
#  47957
#  71357
#  83645
#  100127
#  110247
#  125277
#  144580
#  159960
#  174315
#  186807
#  201362
#  216532
#
# Disc length: 3067 seconds
#
# Revision: 0
# Processed by: cddbd v1.4PL0 Copyright (c) Steve Scherf et al.
# Submitted via: AlterCode_WhopSee 2.7
#
DISCID=dd0bf90f
DTITLE=John Hammond - The Best Of John Hammond
DYEAR=1900
DGENRE=
TTITLE0=I Wish You Would Come Back, Baby
TTITLE1=No Money Down
TTITLE2=They Call It Stormy Monday (But Tuesday Is Just As Bad)
TTITLE3=See That My Grave is Kept Clean
TTITLE4=So Many Roads, So Many Trains
TTITLE5=32-20 Blues
TTITLE6=Baby, Please Don't Go
TTITLE7=I'm a Man
TTITLE8=Backdoor Man
TTITLE9=Statesborough Blues
TTITLE10=Travelling Riverside Blues
TTITLE11=Drop Down Mama
TTITLE12=Keys To The Highway
TTITLE13=Barbecue Blues
TTITLE14=Going Back to Florida
EXTD=
EXTT0=
EXTT1=
EXTT2=
EXTT3=
EXTT4=
EXTT5=
EXTT6=
EXTT7=
EXTT8=
EXTT9=
EXTT10=
EXTT11=
EXTT12=
EXTT13=
EXTT14=
PLAYORDER=
